<?xml version="1.0" encoding="utf-8"?>
<!-- Generator: Adobe Illustrator 16.0.0, SVG Export Plug-In . SVG Version: 6.00 Build 0)  -->
<!DOCTYPE svg PUBLIC "-//W3C//DTD SVG 1.1//EN" "http://www.w3.org/Graphics/SVG/1.1/DTD/svg11.dtd">
<svg version="1.1" xmlns="http://www.w3.org/2000/svg" xmlns:xlink="http://www.w3.org/1999/xlink" x="0px" y="0px" width="200px"
	 height="54.48px" viewBox="0 0 200 54.48" enable-background="new 0 0 200 54.48" xml:space="preserve">
<g id="Layer_1">
	<path fill="#662D91" d="M48,39c0,6.627-5.373,12-12,12H12C5.373,51,0,45.627,0,39V15C0,8.373,5.373,3,12,3h24
		c6.627,0,12,5.373,12,12V39z"/>
	<g id="Layer_3">
	</g>
	<text transform="matrix(1 0 0 1 15.2593 15.4043)" fill="#FFFFFF" font-family="'BookmanOldStyle'" font-size="20">m</text>
	<path fill="#662D91" d="M150,45.688c0,2.934-2.978,5.312-6.233,5.312H37.896C34.64,51,32,48.622,32,45.688v-0.377
		C32,42.378,34.64,40,37.896,40h105.871c3.256,0,6.233,2.378,6.233,5.312V45.688z"/>
	<g>
		<line fill="none" x1="148.182" y1="27.351" x2="156.363" y2="31.896"/>
		<circle fill="none" cx="148.182" cy="27.351" r="7.8"/>
		<circle fill="none" cx="148.182" cy="27.351" r="9.359"/>
		<polyline fill="none" points="148.182,27.351 155.729,11.977 148.182,27.351 140.635,42.725 148.182,27.351 163.555,34.898 
			148.182,27.351 132.809,19.803 148.182,27.351 160.533,21.66 148.182,27.351 135.83,33.041 148.182,27.351 153.872,39.703 
			148.182,27.351 142.491,14.999 148.182,27.351 167.455,17.187 148.182,27.351 128.908,37.515 148.182,27.351 158.346,46.624 
			148.182,27.351 138.018,8.077 148.182,27.351 164.566,21.063 148.182,27.351 131.797,33.638 148.182,27.351 154.469,43.734 
			148.182,27.351 141.895,10.966 148.182,27.351 177.05,-7.866 148.182,27.351 119.313,62.567 148.182,27.351 183.398,56.219 
			148.182,27.351 112.965,-1.518 148.182,27.351 157.065,11.476 148.182,27.351 139.298,43.226 148.182,27.351 164.057,36.234 
			148.182,27.351 132.307,18.467 148.182,27.351 169.195,-14.451 148.182,27.351 127.168,69.152 148.182,27.351 189.983,48.365 
			148.182,27.351 106.38,6.336 148.182,27.351 156.705,14.541 148.182,27.351 139.658,40.16 148.182,27.351 160.991,35.875 
			148.182,27.351 135.372,18.827 148.182,27.351 188.336,21.671 148.182,27.351 108.027,33.03 148.182,27.351 153.861,67.505 
			148.182,27.351 142.502,-12.804 148.182,27.351 158.58,13.969 148.182,27.351 137.783,40.732 148.182,27.351 161.563,37.748 
			148.182,27.351 134.801,16.953 148.182,27.351 158.905,26.725 148.182,27.351 137.458,27.977 148.182,27.351 148.808,38.074 
			148.182,27.351 147.556,16.627 148.182,27.351 150.637,21.79 148.182,27.351 145.727,32.912 148.182,27.351 153.742,29.806 
			148.182,27.351 142.621,24.896 148.182,27.351 153.008,23.311 148.182,27.351 143.355,31.391 148.182,27.351 152.222,32.178 
			148.182,27.351 144.142,22.524 148.182,27.351 169.054,14.654 148.182,27.351 127.31,40.047 148.182,27.351 160.878,48.223 
			148.182,27.351 135.485,6.479 148.182,27.351 162.06,-4.05 148.182,27.351 134.304,58.752 148.182,27.351 179.583,41.229 
			148.182,27.351 116.781,13.473 		"/>
		<radialGradient id="SVGID_1_" cx="148.1816" cy="27.3506" r="18.7197" gradientUnits="userSpaceOnUse">
			<stop  offset="0" style="stop-color:#230000"/>
			<stop  offset="0.73" style="stop-color:#93432A"/>
			<stop  offset="1" style="stop-color:#230000"/>
		</radialGradient>
		<circle opacity="0.15" fill="url(#SVGID_1_)" cx="148.182" cy="27.351" r="18.72"/>
		<radialGradient id="SVGID_2_" cx="148.1816" cy="27.3506" r="9.3599" gradientUnits="userSpaceOnUse">
			<stop  offset="0.15" style="stop-color:#FFFFFF"/>
			<stop  offset="0.2114" style="stop-color:#E2D1D2"/>
			<stop  offset="0.2918" style="stop-color:#BF9A9C"/>
			<stop  offset="0.3613" style="stop-color:#A67276"/>
			<stop  offset="0.4163" style="stop-color:#975A5E"/>
			<stop  offset="0.45" style="stop-color:#915155"/>
			<stop  offset="0.5553" style="stop-color:#6C3638"/>
			<stop  offset="0.6842" style="stop-color:#44191A"/>
			<stop  offset="0.787" style="stop-color:#2C0707"/>
			<stop  offset="0.85" style="stop-color:#230000"/>
			<stop  offset="0.8572" style="stop-color:#270201"/>
			<stop  offset="0.8647" style="stop-color:#340805"/>
			<stop  offset="0.8723" style="stop-color:#48120B"/>
			<stop  offset="0.88" style="stop-color:#652114"/>
			<stop  offset="0.8878" style="stop-color:#8B331F"/>
			<stop  offset="0.8955" style="stop-color:#B8492D"/>
			<stop  offset="0.9" style="stop-color:#D65836"/>
			<stop  offset="0.903" style="stop-color:#C95232"/>
			<stop  offset="0.9146" style="stop-color:#9D3C25"/>
			<stop  offset="0.9267" style="stop-color:#782A1A"/>
			<stop  offset="0.9392" style="stop-color:#591B10"/>
			<stop  offset="0.9523" style="stop-color:#410F09"/>
			<stop  offset="0.9661" style="stop-color:#300604"/>
			<stop  offset="0.9812" style="stop-color:#260201"/>
			<stop  offset="1" style="stop-color:#230000"/>
		</radialGradient>
		<circle opacity="0.5" fill="url(#SVGID_2_)" cx="148.182" cy="27.351" r="9.359"/>
		<radialGradient id="SVGID_3_" cx="148.1816" cy="27.3506" r="7.7998" gradientUnits="userSpaceOnUse">
			<stop  offset="0.15" style="stop-color:#FFFFFF"/>
			<stop  offset="0.2824" style="stop-color:#C2C2C2"/>
			<stop  offset="0.4253" style="stop-color:#888888"/>
			<stop  offset="0.5636" style="stop-color:#575757"/>
			<stop  offset="0.6936" style="stop-color:#313131"/>
			<stop  offset="0.8134" style="stop-color:#161616"/>
			<stop  offset="0.9192" style="stop-color:#060606"/>
			<stop  offset="1" style="stop-color:#000000"/>
		</radialGradient>
		<circle fill="url(#SVGID_3_)" cx="148.182" cy="27.351" r="7.8"/>
		<polyline opacity="0.03" fill="none" stroke="#FFFFFF" stroke-width="2" stroke-miterlimit="10" points="148.182,27.351 
			155.729,11.977 148.182,27.351 140.635,42.725 148.182,27.351 163.555,34.898 148.182,27.351 132.809,19.803 148.182,27.351 
			160.533,21.66 148.182,27.351 135.83,33.041 148.182,27.351 153.872,39.703 148.182,27.351 142.491,14.999 148.182,27.351 
			167.455,17.187 148.182,27.351 128.908,37.515 148.182,27.351 158.346,46.624 148.182,27.351 138.018,8.077 148.182,27.351 
			164.566,21.063 148.182,27.351 131.797,33.638 148.182,27.351 154.469,43.734 148.182,27.351 141.895,10.966 148.182,27.351 
			177.05,-7.866 148.182,27.351 119.313,62.567 148.182,27.351 183.398,56.219 148.182,27.351 112.965,-1.518 148.182,27.351 
			157.065,11.476 148.182,27.351 139.298,43.226 148.182,27.351 164.057,36.234 148.182,27.351 132.307,18.467 148.182,27.351 
			169.195,-14.451 148.182,27.351 127.168,69.152 148.182,27.351 189.983,48.365 148.182,27.351 106.38,6.336 148.182,27.351 
			156.705,14.541 148.182,27.351 139.658,40.16 148.182,27.351 160.991,35.875 148.182,27.351 135.372,18.827 148.182,27.351 
			188.336,21.671 148.182,27.351 108.027,33.03 148.182,27.351 153.861,67.505 148.182,27.351 142.502,-12.804 148.182,27.351 
			158.58,13.969 148.182,27.351 137.783,40.732 148.182,27.351 161.563,37.748 148.182,27.351 134.801,16.953 148.182,27.351 
			158.905,26.725 148.182,27.351 137.458,27.977 148.182,27.351 148.808,38.074 148.182,27.351 147.556,16.627 148.182,27.351 
			150.637,21.79 148.182,27.351 145.727,32.912 148.182,27.351 153.742,29.806 148.182,27.351 142.621,24.896 148.182,27.351 
			153.008,23.311 148.182,27.351 143.355,31.391 148.182,27.351 152.222,32.178 148.182,27.351 144.142,22.524 148.182,27.351 
			169.054,14.654 148.182,27.351 127.31,40.047 148.182,27.351 160.878,48.223 148.182,27.351 135.485,6.479 148.182,27.351 
			162.06,-4.05 148.182,27.351 134.304,58.752 148.182,27.351 179.583,41.229 148.182,27.351 116.781,13.473 		"/>
	</g>
	<g>
		<line fill="none" x1="119.182" y1="27.351" x2="127.363" y2="31.896"/>
		<circle fill="none" cx="119.182" cy="27.351" r="7.8"/>
		<circle fill="none" cx="119.182" cy="27.351" r="9.359"/>
		<polyline fill="none" points="119.182,27.351 126.729,11.977 119.182,27.351 111.635,42.725 119.182,27.351 134.555,34.898 
			119.182,27.351 103.809,19.803 119.182,27.351 131.533,21.66 119.182,27.351 106.83,33.041 119.182,27.351 124.872,39.703 
			119.182,27.351 113.491,14.999 119.182,27.351 138.455,17.187 119.182,27.351 99.908,37.515 119.182,27.351 129.346,46.624 
			119.182,27.351 109.018,8.077 119.182,27.351 135.566,21.063 119.182,27.351 102.797,33.638 119.182,27.351 125.469,43.734 
			119.182,27.351 112.895,10.966 119.182,27.351 148.05,-7.866 119.182,27.351 90.313,62.567 119.182,27.351 154.398,56.219 
			119.182,27.351 83.965,-1.518 119.182,27.351 128.065,11.476 119.182,27.351 110.298,43.226 119.182,27.351 135.057,36.234 
			119.182,27.351 103.307,18.467 119.182,27.351 140.195,-14.451 119.182,27.351 98.168,69.152 119.182,27.351 160.983,48.365 
			119.182,27.351 77.38,6.336 119.182,27.351 127.705,14.541 119.182,27.351 110.658,40.16 119.182,27.351 131.991,35.875 
			119.182,27.351 106.372,18.827 119.182,27.351 159.336,21.671 119.182,27.351 79.027,33.03 119.182,27.351 124.861,67.505 
			119.182,27.351 113.502,-12.804 119.182,27.351 129.58,13.969 119.182,27.351 108.783,40.732 119.182,27.351 132.563,37.748 
			119.182,27.351 105.801,16.953 119.182,27.351 129.905,26.725 119.182,27.351 108.458,27.977 119.182,27.351 119.808,38.074 
			119.182,27.351 118.556,16.627 119.182,27.351 121.637,21.79 119.182,27.351 116.727,32.912 119.182,27.351 124.742,29.806 
			119.182,27.351 113.621,24.896 119.182,27.351 124.008,23.311 119.182,27.351 114.355,31.391 119.182,27.351 123.222,32.178 
			119.182,27.351 115.142,22.524 119.182,27.351 140.054,14.654 119.182,27.351 98.31,40.047 119.182,27.351 131.878,48.223 
			119.182,27.351 106.485,6.479 119.182,27.351 133.06,-4.05 119.182,27.351 105.304,58.752 119.182,27.351 150.583,41.229 
			119.182,27.351 87.781,13.473 		"/>
		<radialGradient id="SVGID_4_" cx="119.1816" cy="27.3506" r="18.7197" gradientUnits="userSpaceOnUse">
			<stop  offset="0" style="stop-color:#230000"/>
			<stop  offset="0.73" style="stop-color:#93432A"/>
			<stop  offset="1" style="stop-color:#230000"/>
		</radialGradient>
		<circle opacity="0.15" fill="url(#SVGID_4_)" cx="119.182" cy="27.351" r="18.72"/>
		<radialGradient id="SVGID_5_" cx="119.1816" cy="27.3506" r="9.3599" gradientUnits="userSpaceOnUse">
			<stop  offset="0.15" style="stop-color:#FFFFFF"/>
			<stop  offset="0.2114" style="stop-color:#E2D1D2"/>
			<stop  offset="0.2918" style="stop-color:#BF9A9C"/>
			<stop  offset="0.3613" style="stop-color:#A67276"/>
			<stop  offset="0.4163" style="stop-color:#975A5E"/>
			<stop  offset="0.45" style="stop-color:#915155"/>
			<stop  offset="0.5553" style="stop-color:#6C3638"/>
			<stop  offset="0.6842" style="stop-color:#44191A"/>
			<stop  offset="0.787" style="stop-color:#2C0707"/>
			<stop  offset="0.85" style="stop-color:#230000"/>
			<stop  offset="0.8572" style="stop-color:#270201"/>
			<stop  offset="0.8647" style="stop-color:#340805"/>
			<stop  offset="0.8723" style="stop-color:#48120B"/>
			<stop  offset="0.88" style="stop-color:#652114"/>
			<stop  offset="0.8878" style="stop-color:#8B331F"/>
			<stop  offset="0.8955" style="stop-color:#B8492D"/>
			<stop  offset="0.9" style="stop-color:#D65836"/>
			<stop  offset="0.903" style="stop-color:#C95232"/>
			<stop  offset="0.9146" style="stop-color:#9D3C25"/>
			<stop  offset="0.9267" style="stop-color:#782A1A"/>
			<stop  offset="0.9392" style="stop-color:#591B10"/>
			<stop  offset="0.9523" style="stop-color:#410F09"/>
			<stop  offset="0.9661" style="stop-color:#300604"/>
			<stop  offset="0.9812" style="stop-color:#260201"/>
			<stop  offset="1" style="stop-color:#230000"/>
		</radialGradient>
		<circle opacity="0.5" fill="url(#SVGID_5_)" cx="119.182" cy="27.351" r="9.359"/>
		<radialGradient id="SVGID_6_" cx="119.1816" cy="27.3506" r="7.7998" gradientUnits="userSpaceOnUse">
			<stop  offset="0.15" style="stop-color:#FFFFFF"/>
			<stop  offset="0.2824" style="stop-color:#C2C2C2"/>
			<stop  offset="0.4253" style="stop-color:#888888"/>
			<stop  offset="0.5636" style="stop-color:#575757"/>
			<stop  offset="0.6936" style="stop-color:#313131"/>
			<stop  offset="0.8134" style="stop-color:#161616"/>
			<stop  offset="0.9192" style="stop-color:#060606"/>
			<stop  offset="1" style="stop-color:#000000"/>
		</radialGradient>
		<circle fill="url(#SVGID_6_)" cx="119.182" cy="27.351" r="7.8"/>
		<polyline opacity="0.03" fill="none" stroke="#FFFFFF" stroke-width="2" stroke-miterlimit="10" points="119.182,27.351 
			126.729,11.977 119.182,27.351 111.635,42.725 119.182,27.351 134.555,34.898 119.182,27.351 103.809,19.803 119.182,27.351 
			131.533,21.66 119.182,27.351 106.83,33.041 119.182,27.351 124.872,39.703 119.182,27.351 113.491,14.999 119.182,27.351 
			138.455,17.187 119.182,27.351 99.908,37.515 119.182,27.351 129.346,46.624 119.182,27.351 109.018,8.077 119.182,27.351 
			135.566,21.063 119.182,27.351 102.797,33.638 119.182,27.351 125.469,43.734 119.182,27.351 112.895,10.966 119.182,27.351 
			148.05,-7.866 119.182,27.351 90.313,62.567 119.182,27.351 154.398,56.219 119.182,27.351 83.965,-1.518 119.182,27.351 
			128.065,11.476 119.182,27.351 110.298,43.226 119.182,27.351 135.057,36.234 119.182,27.351 103.307,18.467 119.182,27.351 
			140.195,-14.451 119.182,27.351 98.168,69.152 119.182,27.351 160.983,48.365 119.182,27.351 77.38,6.336 119.182,27.351 
			127.705,14.541 119.182,27.351 110.658,40.16 119.182,27.351 131.991,35.875 119.182,27.351 106.372,18.827 119.182,27.351 
			159.336,21.671 119.182,27.351 79.027,33.03 119.182,27.351 124.861,67.505 119.182,27.351 113.502,-12.804 119.182,27.351 
			129.58,13.969 119.182,27.351 108.783,40.732 119.182,27.351 132.563,37.748 119.182,27.351 105.801,16.953 119.182,27.351 
			129.905,26.725 119.182,27.351 108.458,27.977 119.182,27.351 119.808,38.074 119.182,27.351 118.556,16.627 119.182,27.351 
			121.637,21.79 119.182,27.351 116.727,32.912 119.182,27.351 124.742,29.806 119.182,27.351 113.621,24.896 119.182,27.351 
			124.008,23.311 119.182,27.351 114.355,31.391 119.182,27.351 123.222,32.178 119.182,27.351 115.142,22.524 119.182,27.351 
			140.054,14.654 119.182,27.351 98.31,40.047 119.182,27.351 131.878,48.223 119.182,27.351 106.485,6.479 119.182,27.351 
			133.06,-4.05 119.182,27.351 105.304,58.752 119.182,27.351 150.583,41.229 119.182,27.351 87.781,13.473 		"/>
	</g>
	<g>
		<line fill="none" x1="90.182" y1="27.351" x2="98.363" y2="31.896"/>
		<circle fill="none" cx="90.182" cy="27.351" r="7.8"/>
		<circle fill="none" cx="90.182" cy="27.351" r="9.359"/>
		<polyline fill="none" points="90.182,27.351 97.729,11.977 90.182,27.351 82.635,42.725 90.182,27.351 105.555,34.898 
			90.182,27.351 74.809,19.803 90.182,27.351 102.533,21.66 90.182,27.351 77.83,33.041 90.182,27.351 95.872,39.703 90.182,27.351 
			84.491,14.999 90.182,27.351 109.455,17.187 90.182,27.351 70.908,37.515 90.182,27.351 100.346,46.624 90.182,27.351 
			80.018,8.077 90.182,27.351 106.566,21.063 90.182,27.351 73.797,33.638 90.182,27.351 96.469,43.734 90.182,27.351 
			83.895,10.966 90.182,27.351 119.05,-7.866 90.182,27.351 61.313,62.567 90.182,27.351 125.398,56.219 90.182,27.351 
			54.965,-1.518 90.182,27.351 99.065,11.476 90.182,27.351 81.298,43.226 90.182,27.351 106.057,36.234 90.182,27.351 
			74.307,18.467 90.182,27.351 111.195,-14.451 90.182,27.351 69.168,69.152 90.182,27.351 131.983,48.365 90.182,27.351 
			48.38,6.336 90.182,27.351 98.705,14.541 90.182,27.351 81.658,40.16 90.182,27.351 102.991,35.875 90.182,27.351 77.372,18.827 
			90.182,27.351 130.336,21.671 90.182,27.351 50.027,33.03 90.182,27.351 95.861,67.505 90.182,27.351 84.502,-12.804 
			90.182,27.351 100.58,13.969 90.182,27.351 79.783,40.732 90.182,27.351 103.563,37.748 90.182,27.351 76.801,16.953 
			90.182,27.351 100.905,26.725 90.182,27.351 79.458,27.977 90.182,27.351 90.808,38.074 90.182,27.351 89.556,16.627 
			90.182,27.351 92.637,21.79 90.182,27.351 87.727,32.912 90.182,27.351 95.742,29.806 90.182,27.351 84.621,24.896 90.182,27.351 
			95.008,23.311 90.182,27.351 85.355,31.391 90.182,27.351 94.222,32.178 90.182,27.351 86.142,22.524 90.182,27.351 
			111.054,14.654 90.182,27.351 69.31,40.047 90.182,27.351 102.878,48.223 90.182,27.351 77.485,6.479 90.182,27.351 104.06,-4.05 
			90.182,27.351 76.304,58.752 90.182,27.351 121.583,41.229 90.182,27.351 58.781,13.473 		"/>
		<radialGradient id="SVGID_7_" cx="90.1816" cy="27.3506" r="18.7197" gradientUnits="userSpaceOnUse">
			<stop  offset="0" style="stop-color:#230000"/>
			<stop  offset="0.73" style="stop-color:#93432A"/>
			<stop  offset="1" style="stop-color:#230000"/>
		</radialGradient>
		<circle opacity="0.15" fill="url(#SVGID_7_)" cx="90.182" cy="27.351" r="18.72"/>
		<radialGradient id="SVGID_8_" cx="90.1816" cy="27.3506" r="9.3599" gradientUnits="userSpaceOnUse">
			<stop  offset="0.15" style="stop-color:#FFFFFF"/>
			<stop  offset="0.2114" style="stop-color:#E2D1D2"/>
			<stop  offset="0.2918" style="stop-color:#BF9A9C"/>
			<stop  offset="0.3613" style="stop-color:#A67276"/>
			<stop  offset="0.4163" style="stop-color:#975A5E"/>
			<stop  offset="0.45" style="stop-color:#915155"/>
			<stop  offset="0.5553" style="stop-color:#6C3638"/>
			<stop  offset="0.6842" style="stop-color:#44191A"/>
			<stop  offset="0.787" style="stop-color:#2C0707"/>
			<stop  offset="0.85" style="stop-color:#230000"/>
			<stop  offset="0.8572" style="stop-color:#270201"/>
			<stop  offset="0.8647" style="stop-color:#340805"/>
			<stop  offset="0.8723" style="stop-color:#48120B"/>
			<stop  offset="0.88" style="stop-color:#652114"/>
			<stop  offset="0.8878" style="stop-color:#8B331F"/>
			<stop  offset="0.8955" style="stop-color:#B8492D"/>
			<stop  offset="0.9" style="stop-color:#D65836"/>
			<stop  offset="0.903" style="stop-color:#C95232"/>
			<stop  offset="0.9146" style="stop-color:#9D3C25"/>
			<stop  offset="0.9267" style="stop-color:#782A1A"/>
			<stop  offset="0.9392" style="stop-color:#591B10"/>
			<stop  offset="0.9523" style="stop-color:#410F09"/>
			<stop  offset="0.9661" style="stop-color:#300604"/>
			<stop  offset="0.9812" style="stop-color:#260201"/>
			<stop  offset="1" style="stop-color:#230000"/>
		</radialGradient>
		<circle opacity="0.5" fill="url(#SVGID_8_)" cx="90.182" cy="27.351" r="9.359"/>
		<radialGradient id="SVGID_9_" cx="90.1816" cy="27.3506" r="7.7998" gradientUnits="userSpaceOnUse">
			<stop  offset="0.15" style="stop-color:#FFFFFF"/>
			<stop  offset="0.2824" style="stop-color:#C2C2C2"/>
			<stop  offset="0.4253" style="stop-color:#888888"/>
			<stop  offset="0.5636" style="stop-color:#575757"/>
			<stop  offset="0.6936" style="stop-color:#313131"/>
			<stop  offset="0.8134" style="stop-color:#161616"/>
			<stop  offset="0.9192" style="stop-color:#060606"/>
			<stop  offset="1" style="stop-color:#000000"/>
		</radialGradient>
		<circle fill="url(#SVGID_9_)" cx="90.182" cy="27.351" r="7.8"/>
		<polyline opacity="0.03" fill="none" stroke="#FFFFFF" stroke-width="2" stroke-miterlimit="10" points="90.182,27.351 
			97.729,11.977 90.182,27.351 82.635,42.725 90.182,27.351 105.555,34.898 90.182,27.351 74.809,19.803 90.182,27.351 
			102.533,21.66 90.182,27.351 77.83,33.041 90.182,27.351 95.872,39.703 90.182,27.351 84.491,14.999 90.182,27.351 
			109.455,17.187 90.182,27.351 70.908,37.515 90.182,27.351 100.346,46.624 90.182,27.351 80.018,8.077 90.182,27.351 
			106.566,21.063 90.182,27.351 73.797,33.638 90.182,27.351 96.469,43.734 90.182,27.351 83.895,10.966 90.182,27.351 
			119.05,-7.866 90.182,27.351 61.313,62.567 90.182,27.351 125.398,56.219 90.182,27.351 54.965,-1.518 90.182,27.351 
			99.065,11.476 90.182,27.351 81.298,43.226 90.182,27.351 106.057,36.234 90.182,27.351 74.307,18.467 90.182,27.351 
			111.195,-14.451 90.182,27.351 69.168,69.152 90.182,27.351 131.983,48.365 90.182,27.351 48.38,6.336 90.182,27.351 
			98.705,14.541 90.182,27.351 81.658,40.16 90.182,27.351 102.991,35.875 90.182,27.351 77.372,18.827 90.182,27.351 
			130.336,21.671 90.182,27.351 50.027,33.03 90.182,27.351 95.861,67.505 90.182,27.351 84.502,-12.804 90.182,27.351 
			100.58,13.969 90.182,27.351 79.783,40.732 90.182,27.351 103.563,37.748 90.182,27.351 76.801,16.953 90.182,27.351 
			100.905,26.725 90.182,27.351 79.458,27.977 90.182,27.351 90.808,38.074 90.182,27.351 89.556,16.627 90.182,27.351 
			92.637,21.79 90.182,27.351 87.727,32.912 90.182,27.351 95.742,29.806 90.182,27.351 84.621,24.896 90.182,27.351 95.008,23.311 
			90.182,27.351 85.355,31.391 90.182,27.351 94.222,32.178 90.182,27.351 86.142,22.524 90.182,27.351 111.054,14.654 
			90.182,27.351 69.31,40.047 90.182,27.351 102.878,48.223 90.182,27.351 77.485,6.479 90.182,27.351 104.06,-4.05 90.182,27.351 
			76.304,58.752 90.182,27.351 121.583,41.229 90.182,27.351 58.781,13.473 		"/>
	</g>
	<g>
		<line fill="none" x1="61.182" y1="27.351" x2="69.363" y2="31.896"/>
		<circle fill="none" cx="61.182" cy="27.351" r="7.8"/>
		<circle fill="none" cx="61.182" cy="27.351" r="9.359"/>
		<polyline fill="none" points="61.182,27.351 68.729,11.977 61.182,27.351 53.635,42.725 61.182,27.351 76.555,34.898 
			61.182,27.351 45.809,19.803 61.182,27.351 73.533,21.66 61.182,27.351 48.83,33.041 61.182,27.351 66.872,39.703 61.182,27.351 
			55.491,14.999 61.182,27.351 80.455,17.187 61.182,27.351 41.908,37.515 61.182,27.351 71.346,46.624 61.182,27.351 51.018,8.077 
			61.182,27.351 77.566,21.063 61.182,27.351 44.797,33.638 61.182,27.351 67.469,43.734 61.182,27.351 54.895,10.966 
			61.182,27.351 90.05,-7.866 61.182,27.351 32.313,62.567 61.182,27.351 96.398,56.219 61.182,27.351 25.965,-1.518 61.182,27.351 
			70.065,11.476 61.182,27.351 52.298,43.226 61.182,27.351 77.057,36.234 61.182,27.351 45.307,18.467 61.182,27.351 
			82.195,-14.451 61.182,27.351 40.168,69.152 61.182,27.351 102.983,48.365 61.182,27.351 19.38,6.336 61.182,27.351 
			69.705,14.541 61.182,27.351 52.658,40.16 61.182,27.351 73.991,35.875 61.182,27.351 48.372,18.827 61.182,27.351 
			101.336,21.671 61.182,27.351 21.027,33.03 61.182,27.351 66.861,67.505 61.182,27.351 55.502,-12.804 61.182,27.351 
			71.58,13.969 61.182,27.351 50.783,40.732 61.182,27.351 74.563,37.748 61.182,27.351 47.801,16.953 61.182,27.351 71.905,26.725 
			61.182,27.351 50.458,27.977 61.182,27.351 61.808,38.074 61.182,27.351 60.556,16.627 61.182,27.351 63.637,21.79 61.182,27.351 
			58.727,32.912 61.182,27.351 66.742,29.806 61.182,27.351 55.621,24.896 61.182,27.351 66.008,23.311 61.182,27.351 
			56.355,31.391 61.182,27.351 65.222,32.178 61.182,27.351 57.142,22.524 61.182,27.351 82.054,14.654 61.182,27.351 40.31,40.047 
			61.182,27.351 73.878,48.223 61.182,27.351 48.485,6.479 61.182,27.351 75.06,-4.05 61.182,27.351 47.304,58.752 61.182,27.351 
			92.583,41.229 61.182,27.351 29.781,13.473 		"/>
		<radialGradient id="SVGID_10_" cx="61.1816" cy="27.3506" r="18.7197" gradientUnits="userSpaceOnUse">
			<stop  offset="0" style="stop-color:#230000"/>
			<stop  offset="0.73" style="stop-color:#93432A"/>
			<stop  offset="1" style="stop-color:#230000"/>
		</radialGradient>
		<circle opacity="0.15" fill="url(#SVGID_10_)" cx="61.182" cy="27.351" r="18.72"/>
		<radialGradient id="SVGID_11_" cx="61.1816" cy="27.3506" r="9.3599" gradientUnits="userSpaceOnUse">
			<stop  offset="0.15" style="stop-color:#FFFFFF"/>
			<stop  offset="0.2114" style="stop-color:#E2D1D2"/>
			<stop  offset="0.2918" style="stop-color:#BF9A9C"/>
			<stop  offset="0.3613" style="stop-color:#A67276"/>
			<stop  offset="0.4163" style="stop-color:#975A5E"/>
			<stop  offset="0.45" style="stop-color:#915155"/>
			<stop  offset="0.5553" style="stop-color:#6C3638"/>
			<stop  offset="0.6842" style="stop-color:#44191A"/>
			<stop  offset="0.787" style="stop-color:#2C0707"/>
			<stop  offset="0.85" style="stop-color:#230000"/>
			<stop  offset="0.8572" style="stop-color:#270201"/>
			<stop  offset="0.8647" style="stop-color:#340805"/>
			<stop  offset="0.8723" style="stop-color:#48120B"/>
			<stop  offset="0.88" style="stop-color:#652114"/>
			<stop  offset="0.8878" style="stop-color:#8B331F"/>
			<stop  offset="0.8955" style="stop-color:#B8492D"/>
			<stop  offset="0.9" style="stop-color:#D65836"/>
			<stop  offset="0.903" style="stop-color:#C95232"/>
			<stop  offset="0.9146" style="stop-color:#9D3C25"/>
			<stop  offset="0.9267" style="stop-color:#782A1A"/>
			<stop  offset="0.9392" style="stop-color:#591B10"/>
			<stop  offset="0.9523" style="stop-color:#410F09"/>
			<stop  offset="0.9661" style="stop-color:#300604"/>
			<stop  offset="0.9812" style="stop-color:#260201"/>
			<stop  offset="1" style="stop-color:#230000"/>
		</radialGradient>
		<circle opacity="0.5" fill="url(#SVGID_11_)" cx="61.182" cy="27.351" r="9.359"/>
		<radialGradient id="SVGID_12_" cx="61.1816" cy="27.3506" r="7.7998" gradientUnits="userSpaceOnUse">
			<stop  offset="0.15" style="stop-color:#FFFFFF"/>
			<stop  offset="0.2824" style="stop-color:#C2C2C2"/>
			<stop  offset="0.4253" style="stop-color:#888888"/>
			<stop  offset="0.5636" style="stop-color:#575757"/>
			<stop  offset="0.6936" style="stop-color:#313131"/>
			<stop  offset="0.8134" style="stop-color:#161616"/>
			<stop  offset="0.9192" style="stop-color:#060606"/>
			<stop  offset="1" style="stop-color:#000000"/>
		</radialGradient>
		<circle fill="url(#SVGID_12_)" cx="61.182" cy="27.351" r="7.8"/>
		<polyline opacity="0.03" fill="none" stroke="#FFFFFF" stroke-width="2" stroke-miterlimit="10" points="61.182,27.351 
			68.729,11.977 61.182,27.351 53.635,42.725 61.182,27.351 76.555,34.898 61.182,27.351 45.809,19.803 61.182,27.351 73.533,21.66 
			61.182,27.351 48.83,33.041 61.182,27.351 66.872,39.703 61.182,27.351 55.491,14.999 61.182,27.351 80.455,17.187 61.182,27.351 
			41.908,37.515 61.182,27.351 71.346,46.624 61.182,27.351 51.018,8.077 61.182,27.351 77.566,21.063 61.182,27.351 44.797,33.638 
			61.182,27.351 67.469,43.734 61.182,27.351 54.895,10.966 61.182,27.351 90.05,-7.866 61.182,27.351 32.313,62.567 61.182,27.351 
			96.398,56.219 61.182,27.351 25.965,-1.518 61.182,27.351 70.065,11.476 61.182,27.351 52.298,43.226 61.182,27.351 
			77.057,36.234 61.182,27.351 45.307,18.467 61.182,27.351 82.195,-14.451 61.182,27.351 40.168,69.152 61.182,27.351 
			102.983,48.365 61.182,27.351 19.38,6.336 61.182,27.351 69.705,14.541 61.182,27.351 52.658,40.16 61.182,27.351 73.991,35.875 
			61.182,27.351 48.372,18.827 61.182,27.351 101.336,21.671 61.182,27.351 21.027,33.03 61.182,27.351 66.861,67.505 
			61.182,27.351 55.502,-12.804 61.182,27.351 71.58,13.969 61.182,27.351 50.783,40.732 61.182,27.351 74.563,37.748 
			61.182,27.351 47.801,16.953 61.182,27.351 71.905,26.725 61.182,27.351 50.458,27.977 61.182,27.351 61.808,38.074 
			61.182,27.351 60.556,16.627 61.182,27.351 63.637,21.79 61.182,27.351 58.727,32.912 61.182,27.351 66.742,29.806 61.182,27.351 
			55.621,24.896 61.182,27.351 66.008,23.311 61.182,27.351 56.355,31.391 61.182,27.351 65.222,32.178 61.182,27.351 
			57.142,22.524 61.182,27.351 82.054,14.654 61.182,27.351 40.31,40.047 61.182,27.351 73.878,48.223 61.182,27.351 48.485,6.479 
			61.182,27.351 75.06,-4.05 61.182,27.351 47.304,58.752 61.182,27.351 92.583,41.229 61.182,27.351 29.781,13.473 		"/>
	</g>
	<text id="logo1" transform="matrix(1 0 0 1 7.7275 46.5)" fill="#FFFFFF" font-family="'BookmanOldStyle'" font-size="60">a</text>
</g>
<g id="Layer_2">
</g>
</svg>
