<?xml version="1.0" encoding="utf-8"?>
<!-- Generator: Adobe Illustrator 16.0.0, SVG Export Plug-In . SVG Version: 6.00 Build 0)  -->
<!DOCTYPE svg PUBLIC "-//W3C//DTD SVG 1.1//EN" "http://www.w3.org/Graphics/SVG/1.1/DTD/svg11.dtd">
<svg version="1.1" id="Layer_1" xmlns="http://www.w3.org/2000/svg" xmlns:xlink="http://www.w3.org/1999/xlink" x="0px" y="0px"
	 width="100px" height="54.48px" viewBox="0 0 100 54.48" enable-background="new 0 0 100 54.48" xml:space="preserve">
<g id="Layer_1_1_">
	<path fill="#662D91" d="M96,39c0,6.627-10.299,12-23,12H27C14.298,51,4,45.627,4,39V15C4,8.373,14.298,3,27,3h46
		c12.701,0,23,5.373,23,12V39z"/>
	<g id="Layer_3">
	</g>
	<text transform="matrix(1 0 0 1 19.2598 15.4043)" fill="#FFFFFF" font-family="'BookmanOldStyle'" font-size="20">m</text>
	<g>
		<line fill="none" x1="63.182" y1="27.352" x2="71.363" y2="31.896"/>
		<circle fill="none" cx="63.182" cy="27.351" r="7.8"/>
		<circle fill="none" cx="63.182" cy="27.351" r="9.359"/>
		<polyline fill="none" points="63.182,27.352 70.729,11.978 63.182,27.352 55.635,42.726 63.182,27.352 78.555,34.898 
			63.182,27.352 47.809,19.804 63.182,27.352 75.533,21.66 63.182,27.352 50.83,33.041 63.182,27.352 68.872,39.703 63.182,27.352 
			57.491,14.999 63.182,27.352 82.455,17.188 63.182,27.352 43.908,37.516 63.182,27.352 73.346,46.624 63.182,27.352 53.018,8.077 
			63.182,27.352 79.566,21.063 63.182,27.352 46.797,33.639 63.182,27.352 69.469,43.734 63.182,27.352 56.895,10.966 
			63.182,27.352 92.05,-7.866 63.182,27.352 34.313,62.567 63.182,27.352 98.398,56.219 63.182,27.352 27.965,-1.518 63.182,27.352 
			72.064,11.477 63.182,27.352 54.298,43.227 63.182,27.352 79.057,36.234 63.182,27.352 47.307,18.467 63.182,27.352 
			84.195,-14.451 63.182,27.352 42.168,69.152 63.182,27.352 104.982,48.365 63.182,27.352 21.38,6.336 63.182,27.352 
			71.705,14.541 63.182,27.352 54.658,40.16 63.182,27.352 75.991,35.875 63.182,27.352 50.372,18.827 63.182,27.352 
			103.336,21.671 63.182,27.352 23.027,33.03 63.182,27.352 68.861,67.505 63.182,27.352 57.502,-12.804 63.182,27.352 
			73.58,13.969 63.182,27.352 52.783,40.732 63.182,27.352 76.563,37.748 63.182,27.352 49.801,16.953 63.182,27.352 73.904,26.726 
			63.182,27.352 52.458,27.978 63.182,27.352 63.809,38.074 63.182,27.352 62.557,16.627 63.182,27.352 65.637,21.79 63.182,27.352 
			60.727,32.912 63.182,27.352 68.742,29.807 63.182,27.352 57.621,24.896 63.182,27.352 68.008,23.312 63.182,27.352 
			58.355,31.392 63.182,27.352 67.223,32.179 63.182,27.352 59.143,22.524 63.182,27.352 84.055,14.654 63.182,27.352 
			42.311,40.047 63.182,27.352 75.878,48.224 63.182,27.352 50.484,6.479 63.182,27.352 77.061,-4.05 63.182,27.352 49.305,58.752 
			63.182,27.352 94.583,41.229 63.182,27.352 31.781,13.474 		"/>
		
			<radialGradient id="SVGID_1_" cx="384.0215" cy="-242.1909" r="18.7205" gradientTransform="matrix(1 0 0 -1 -320.8398 -214.8398)" gradientUnits="userSpaceOnUse">
			<stop  offset="0" style="stop-color:#230000"/>
			<stop  offset="0.73" style="stop-color:#93432A"/>
			<stop  offset="1" style="stop-color:#230000"/>
		</radialGradient>
		<circle opacity="0.15" fill="url(#SVGID_1_)" enable-background="new    " cx="63.182" cy="27.351" r="18.72"/>
		
			<radialGradient id="SVGID_2_" cx="384.0215" cy="-242.1909" r="9.3591" gradientTransform="matrix(1 0 0 -1 -320.8398 -214.8398)" gradientUnits="userSpaceOnUse">
			<stop  offset="0.15" style="stop-color:#FFFFFF"/>
			<stop  offset="0.2114" style="stop-color:#E2D1D2"/>
			<stop  offset="0.2918" style="stop-color:#BF9A9C"/>
			<stop  offset="0.3613" style="stop-color:#A67276"/>
			<stop  offset="0.4163" style="stop-color:#975A5E"/>
			<stop  offset="0.45" style="stop-color:#915155"/>
			<stop  offset="0.5553" style="stop-color:#6C3638"/>
			<stop  offset="0.6842" style="stop-color:#44191A"/>
			<stop  offset="0.787" style="stop-color:#2C0707"/>
			<stop  offset="0.85" style="stop-color:#230000"/>
			<stop  offset="0.8572" style="stop-color:#270201"/>
			<stop  offset="0.8647" style="stop-color:#340805"/>
			<stop  offset="0.8723" style="stop-color:#48120B"/>
			<stop  offset="0.88" style="stop-color:#652114"/>
			<stop  offset="0.8878" style="stop-color:#8B331F"/>
			<stop  offset="0.8955" style="stop-color:#B8492D"/>
			<stop  offset="0.9" style="stop-color:#D65836"/>
			<stop  offset="0.903" style="stop-color:#C95232"/>
			<stop  offset="0.9146" style="stop-color:#9D3C25"/>
			<stop  offset="0.9267" style="stop-color:#782A1A"/>
			<stop  offset="0.9392" style="stop-color:#591B10"/>
			<stop  offset="0.9523" style="stop-color:#410F09"/>
			<stop  offset="0.9661" style="stop-color:#300604"/>
			<stop  offset="0.9812" style="stop-color:#260201"/>
			<stop  offset="1" style="stop-color:#230000"/>
		</radialGradient>
		<circle opacity="0.5" fill="url(#SVGID_2_)" enable-background="new    " cx="63.182" cy="27.351" r="9.359"/>
		
			<radialGradient id="SVGID_3_" cx="384.0215" cy="-242.1909" r="7.8005" gradientTransform="matrix(1 0 0 -1 -320.8398 -214.8398)" gradientUnits="userSpaceOnUse">
			<stop  offset="0.15" style="stop-color:#FFFFFF"/>
			<stop  offset="0.2824" style="stop-color:#C2C2C2"/>
			<stop  offset="0.4253" style="stop-color:#888888"/>
			<stop  offset="0.5636" style="stop-color:#575757"/>
			<stop  offset="0.6936" style="stop-color:#313131"/>
			<stop  offset="0.8134" style="stop-color:#161616"/>
			<stop  offset="0.9192" style="stop-color:#060606"/>
			<stop  offset="1" style="stop-color:#000000"/>
		</radialGradient>
		<circle fill="url(#SVGID_3_)" cx="63.182" cy="27.351" r="7.8"/>
		
			<polyline opacity="0.03" fill="none" stroke="#FFFFFF" stroke-width="2" stroke-miterlimit="10" enable-background="new    " points="
			63.182,27.352 70.729,11.978 63.182,27.352 55.635,42.726 63.182,27.352 78.555,34.898 63.182,27.352 47.809,19.804 
			63.182,27.352 75.533,21.66 63.182,27.352 50.83,33.041 63.182,27.352 68.872,39.703 63.182,27.352 57.491,14.999 63.182,27.352 
			82.455,17.188 63.182,27.352 43.908,37.516 63.182,27.352 73.346,46.624 63.182,27.352 53.018,8.077 63.182,27.352 79.566,21.063 
			63.182,27.352 46.797,33.639 63.182,27.352 69.469,43.734 63.182,27.352 56.895,10.966 63.182,27.352 92.05,-7.866 63.182,27.352 
			34.313,62.567 63.182,27.352 98.398,56.219 63.182,27.352 27.965,-1.518 63.182,27.352 72.064,11.477 63.182,27.352 
			54.298,43.227 63.182,27.352 79.057,36.234 63.182,27.352 47.307,18.467 63.182,27.352 84.195,-14.451 63.182,27.352 
			42.168,69.152 63.182,27.352 104.982,48.365 63.182,27.352 21.38,6.336 63.182,27.352 71.705,14.541 63.182,27.352 54.658,40.16 
			63.182,27.352 75.991,35.875 63.182,27.352 50.372,18.827 63.182,27.352 103.336,21.671 63.182,27.352 23.027,33.03 
			63.182,27.352 68.861,67.505 63.182,27.352 57.502,-12.804 63.182,27.352 73.58,13.969 63.182,27.352 52.783,40.732 
			63.182,27.352 76.563,37.748 63.182,27.352 49.801,16.953 63.182,27.352 73.904,26.726 63.182,27.352 52.458,27.978 
			63.182,27.352 63.809,38.074 63.182,27.352 62.557,16.627 63.182,27.352 65.637,21.79 63.182,27.352 60.727,32.912 63.182,27.352 
			68.742,29.807 63.182,27.352 57.621,24.896 63.182,27.352 68.008,23.312 63.182,27.352 58.355,31.392 63.182,27.352 
			67.223,32.179 63.182,27.352 59.143,22.524 63.182,27.352 84.055,14.654 63.182,27.352 42.311,40.047 63.182,27.352 
			75.878,48.224 63.182,27.352 50.484,6.479 63.182,27.352 77.061,-4.05 63.182,27.352 49.305,58.752 63.182,27.352 94.583,41.229 
			63.182,27.352 31.781,13.474 		"/>
	</g>
	<text id="logo1" transform="matrix(1 0 0 1 11.7275 46.5)" fill="#FFFFFF" font-family="'BookmanOldStyle'" font-size="60">a</text>
</g>
</svg>
